<svg xmlns="http://www.w3.org/2000/svg" width="958.642" height="63.512" xmlns:v="https://vecta.io/nano"><defs><clipPath id="A"><path d="M0 0h576v783H0z"/></clipPath></defs><g clip-path="url(#A)" transform="matrix(4.277471 0 0 -4.277471 -153.989725 162.616175)"><path d="M40.11 37.704h6.449v-.468h-.349c-.683 0-1.13-.056-1.341-.168s-.353-.325-.419-.631-.104-1.043-.104-2.199v-4.754c0-1.181-.045-2.074-.137-2.691s-.349-1.217-.774-1.803-.989-1.035-1.694-1.351-1.527-.47-2.463-.47c-1.051 0-1.861.195-2.427.581S36 24.604 36 25.138c0 .323.101.595.304.817a.98.98 0 0 0 .75.327c.303 0 .557-.097.759-.294a.97.97 0 0 0 .306-.728c0-.171-.042-.346-.125-.533-.075-.163-.113-.284-.113-.365 0-.218.128-.39.387-.512s.581-.184.964-.184c.778 0 1.432.248 1.965.743s.852 1.081.962 1.756.164 1.785.164 3.335v4.744l-.098 2.142c-.066.321-.203.543-.413.666s-.667.184-1.372.184h-.33zm12.151-6.849h.998c.803 0 1.451.077 1.945.241.493.158.906.499 1.234 1.013s.494 1.15.494 1.904c0 1.153-.283 1.999-.849 2.539s-1.482.81-2.752.81a9.84 9.84 0 0 1-1.07-.044zm0-.501v-2.938l.079-2.16c.052-.339.19-.594.417-.757s.654-.249 1.281-.249h.464v-.467h-6.414v.467h.372c.599 0 1.014.078 1.244.224.23.153.378.389.44.709s.092 1.055.092 2.221v6.833l-.092 2.147c-.062.323-.2.544-.414.668s-.676.184-1.382.184h-.26v.468l1.752.071 3.276.084c1.442 0 2.554-.113 3.332-.337s1.419-.626 1.918-1.204c.499-.572.748-1.299.748-2.175 0-.761-.172-1.43-.511-2.012s-.825-1.024-1.459-1.324-1.752-.453-3.35-.453zm18.474-4.169l5.063 11.519h4.297v-.468h-.514c-.688 0-1.138-.056-1.35-.168s-.353-.325-.425-.631-.108-1.044-.108-2.2v-6.833l.082-2.153c.054-.337.193-.589.415-.753s.652-.248 1.283-.248h.617v-.468h-6.696v.468h.496c.593 0 1.004.078 1.236.224.228.153.378.388.443.706s.098 1.058.098 2.224v8.861l-5.484-12.483h-.499l-5.538 12.483v-8.157l.102-2.28c.069-.403.28-.756.636-1.061s.859-.476 1.503-.517v-.468h-5.014v.468c.598.032 1.086.196 1.461.486s.606.651.686 1.072c.085.427.127 1.213.127 2.365v6.064l-.098 2.147c-.066.323-.204.544-.415.668s-.668.184-1.379.184h-.382v.468h4.247zm11.975 2.988c0-1.722.34-3.013 1.026-3.879s1.707-1.292 3.074-1.292c1.2 0 2.148.431 2.843 1.292s1.046 2.151 1.046 3.863c0 1.664-.343 2.942-1.029 3.828s-1.681 1.33-2.985 1.33c-1.285 0-2.267-.433-2.949-1.301s-1.026-2.143-1.026-3.841m-1.823.056c0 1.651.552 2.978 1.656 3.979s2.48 1.499 4.129 1.499c1.665 0 3.056-.494 4.175-1.484s1.674-2.34 1.674-4.05c0-1.658-.536-2.999-1.603-4.025s-2.478-1.54-4.221-1.54c-1.698 0-3.091.511-4.177 1.54s-1.633 2.388-1.633 4.081m166.162-.056c0-1.722.343-3.013 1.027-3.879s1.707-1.292 3.073-1.292c1.199 0 2.148.431 2.844 1.292s1.045 2.151 1.045 3.863c0 1.664-.341 2.942-1.031 3.828-.682.885-1.68 1.33-2.983 1.33-1.284 0-2.266-.433-2.948-1.301s-1.027-2.143-1.027-3.841m-1.823.056c0 1.651.554 2.978 1.656 3.979s2.484 1.499 4.133 1.499c1.661 0 3.056-.494 4.172-1.484s1.672-2.34 1.672-4.05c0-1.658-.535-2.999-1.605-4.025s-2.473-1.54-4.217-1.54c-1.698 0-3.089.511-4.176 1.54s-1.635 2.388-1.635 4.081m-148.061.096l1.207.047c.415.02.775.078 1.082.175s.555.234.744.414.339.424.446.716.165.659.165 1.092c0 .754-.186 1.357-.557 1.809s-1.18.68-2.425.68c-.192 0-.415-.01-.662-.031zm8.043-5.522h-2.865c-.505.361-1.283 1.289-2.328 2.796L98.97 27.98c-.363.441-.611.712-.746.808s-.347.145-.635.145h-.424v-2.356l.058-1.643c.04-.259.147-.453.318-.578s.501-.187.985-.187h.518v-.366h-5.131v.366h.347c.46 0 .777.056.955.172s.289.297.335.544.075.812.075 1.707v5.25l-.075 1.651c-.047.247-.155.417-.32.512s-.525.14-1.075.14h-.186v.367l1.528.073 2.425.066c1.021 0 1.849-.094 2.487-.282s1.153-.503 1.548-.935.588-.949.588-1.55c0-.702-.256-1.299-.766-1.796s-1.261-.804-2.254-.925c.449-.211 1.167-.988 2.158-2.327.808-1.085 1.438-1.792 1.897-2.133.46-.334 1.002-.514 1.628-.534zm7.411 4.572h4.627v-.364c-.51 0-.858-.056-1.037-.158s-.305-.273-.363-.514-.086-.823-.086-1.747v-1.143a2.09 2.09 0 0 1-.339.032c-.405 0-.936-.125-1.592-.37-.894-.336-1.723-.504-2.484-.504-1.531 0-2.804.506-3.818 1.515s-1.523 2.282-1.523 3.831c0 1.53.488 2.874 1.457 4.025s2.289 1.728 3.955 1.728c1.434 0 2.619-.523 3.559-1.573.18.372.288.777.335 1.208h.366v-3.585h-.366c-.151 1.095-.569 1.961-1.25 2.602a3.51 3.51 0 0 1-2.484.957c-1.005 0-1.88-.375-2.627-1.121s-1.119-2.069-1.119-3.974c0-1.897.358-3.239 1.074-4.033a3.46 3.46 0 0 1 2.672-1.185c.546 0 1.042.111 1.487.336s.752.494.911.816.246.729.246 1.22c0 .573-.041.958-.118 1.147s-.194.322-.353.389-.451.101-.874.101h-.256zm12.23-.225l-1.866 4.528-1.869-4.528zm.162-.394h-4.06l-.281-.679c-.41-.986-.615-1.628-.615-1.927 0-.324.108-.566.327-.733s.502-.248.849-.248v-.366h-3.222v.366c.475.076.828.241 1.064.502s.513.81.84 1.649l.389.918 3.125 7.413h.313l3.564-8.495.487-1.119c.113-.252.262-.451.447-.593.188-.15.468-.239.841-.275v-.366h-4.203v.366c.514 0 .862.039 1.043.114s.272.229.272.454c0 .115-.121.461-.364 1.035zm15.037-4.203l-7.594 10.044v-7.429c0-.617.03-1.024.089-1.219s.231-.373.514-.535.709-.246 1.276-.246v-.365h-3.981v.365c.506.037.893.129 1.16.281s.423.311.474.485.074.585.074 1.231v5.676c0 .821-.038 1.372-.115 1.652-.076.275-.197.456-.364.535s-.541.117-1.116.117v.367h3.193l6.336-8.38v6.405c0 .472-.048.804-.146.994s-.297.338-.595.45-.661.164-1.082.164v.367h3.869v-.367c-.449-.035-.801-.123-1.057-.259s-.424-.299-.491-.492-.107-.52-.107-.978v-8.863zm20.236 5.415h.467v-4.89h-.467c-.123.556-.346 1.046-.669 1.473-1.218-1.38-2.774-2.064-4.667-2.064-2.001 0-3.636.635-4.905 1.907s-1.904 2.952-1.904 5.044c0 1.374.292 2.669.877 3.882s1.404 2.115 2.453 2.703 2.197.882 3.448.882c1.033 0 1.974-.213 2.814-.639s1.468-.895 1.884-1.412a4.9 4.9 0 0 1 .542 1.8h.469l.125-5.262h-.467c-.307 1.867-.931 3.173-1.877 3.909s-2.006 1.104-3.193 1.104c-1.449 0-2.602-.59-3.458-1.776s-1.279-2.877-1.279-5.081c0-2.087.46-3.688 1.395-4.804.938-1.11 2.1-1.666 3.485-1.666.743 0 1.504.179 2.28.543s1.391.977 1.843 1.84.722 1.699.804 2.507m11.745.246h-5.576v-2.589l.063-1.658c.041-.261.153-.455.321-.582.175-.127.505-.188.99-.188h.279v-.365h-4.85v.365h.28c.46 0 .777.057.955.173a.8.8 0 0 1 .345.538c.049.243.074.816.074 1.712v5.248l-.074 1.652c-.049.245-.159.415-.321.512s-.515.142-1.06.142h-.199v.363h4.85v-.363h-.199c-.529 0-.875-.044-1.039-.131s-.278-.249-.331-.484c-.059-.238-.084-.801-.084-1.691v-2.122h5.576v2.122l-.068 1.652c-.049.245-.153.415-.312.512s-.507.142-1.046.142h-.282v.363h4.848v-.363h-.154c-.531 0-.874-.044-1.032-.131-.164-.088-.273-.249-.327-.484s-.084-.801-.084-1.691V26.62l.061-1.655c.037-.261.144-.453.315-.58.177-.127.5-.188.979-.188h.242v-.365h-4.848v.365h.368c.45 0 .762.057.936.173s.287.297.336.541.068.816.068 1.714zm11.042-1.04l-1.865 4.529-1.87-4.529zm.159-.393h-4.054l-.284-.681c-.409-.983-.613-1.624-.613-1.924 0-.321.106-.567.327-.731s.501-.249.849-.249v-.364h-3.226v.364c.478.074.832.241 1.067.501s.512.813.843 1.651l.385.915 3.125 7.417h.314l3.565-8.495.486-1.121c.11-.25.261-.452.448-.598s.465-.233.84-.27v-.364h-4.204v.364c.512 0 .863.039 1.043.112.18.079.273.231.273.453 0 .117-.121.462-.365 1.038zm5.438-3.839v3.451h.392c.447-2.244 1.51-3.364 3.182-3.364.75 0 1.337.216 1.748.642s.618.908.618 1.439-.179.986-.542 1.349c-.36.357-1.023.74-1.986 1.15-.86.368-1.506.691-1.94.968a2.97 2.97 0 0 0-1.023 1.076c-.245.443-.364.914-.364 1.414 0 .763.264 1.397.796 1.906s1.202.763 2.018.763c.456 0 .883-.074 1.285-.222s.812-.452 1.234-.914c.245.288.382.601.414.937h.333v-2.801h-.333c-.202.807-.559 1.446-1.071 1.91a2.56 2.56 0 0 1-1.778.695c-.641 0-1.112-.17-1.413-.511s-.449-.716-.449-1.123c0-.491.19-.906.566-1.243.368-.344 1.039-.736 2.002-1.168l2.013-.996c.419-.25.756-.597 1.012-1.039.249-.445.379-.953.379-1.532 0-.915-.305-1.66-.921-2.233-.61-.574-1.426-.861-2.448-.861a3.75 3.75 0 0 0-2.945 1.35c-.174-.245-.303-.593-.387-1.043zm17.614 3.225h.365l-.233-3.335h-8.82v.363h.222c.525 0 .868.071 1.02.214s.25.323.294.539.061.775.061 1.671v5.248l-.066 1.612c-.047.259-.15.439-.308.54-.165.104-.506.155-1.027.155v.362h7.622l.255-2.658h-.364c-.171.742-.374 1.271-.618 1.581s-.528.511-.865.592-.871.123-1.614.123h-1.471v-4.485h1.127c.518 0 .88.044 1.084.132s.343.225.408.406.098.535.098 1.059h.363v-3.642h-.363c0 .593-.048.99-.148 1.195-.099.2-.241.333-.434.395s-.514.09-.969.09h-1.166v-2.531c0-1.266.078-2.013.244-2.234s.601-.336 1.316-.336h.792c.562 0 1.025.066 1.389.196.357.132.704.42 1.031.871s.588 1.074.775 1.877m10.562 5.683c1.431.833 2.142 1.733 2.142 2.703 0 .576-.156 1.043-.476 1.4s-.744.531-1.266.531-.931-.171-1.246-.511-.466-.764-.466-1.272c0-.696.439-1.648 1.312-2.851m-1.069-1.297c-.754-.457-1.336-.992-1.743-1.603-.415-.614-.618-1.207-.618-1.777 0-.88.355-1.715 1.067-2.496s1.514-1.179 2.412-1.179c1.002 0 1.924.494 2.77 1.483l-3.888 5.572m4.616 1.014h4.608v-.5c-.579-.155-1.086-.434-1.517-.834s-.88-1.151-1.339-2.257c-.384-.914-.74-1.58-1.062-2.01.766-1.098 1.369-1.792 1.805-2.088a2.45 2.45 0 0 1 1.396-.441c.674 0 1.195.323 1.558.966h.497a2.46 2.46 0 0 0-.96-1.422c-.491-.36-1.06-.54-1.702-.54-1.401 0-2.629.698-3.691 2.1-1.26-1.402-2.593-2.1-4-2.1-.689 0-1.343.166-1.97.498s-1.14.798-1.534 1.399-.593 1.293-.593 2.078c0 .9.245 1.654.738 2.266s1.432 1.382 2.826 2.309c-.84 1.166-1.259 2.22-1.259 3.161 0 .745.286 1.407.857 1.991s1.294.874 2.16.874c.771 0 1.467-.22 2.094-.655.619-.437.931-1.009.931-1.714 0-1.103-1.03-2.169-3.086-3.204l3.613-4.996a8.19 8.19 0 0 1 .966 1.771c.231.608.355 1.083.355 1.427 0 .819-.564 1.293-1.691 1.421zm21.746-3.552h.467v-4.889h-.467a3.8 3.8 0 0 1-.669 1.472c-1.218-1.377-2.778-2.064-4.665-2.064-2.001 0-3.637.635-4.908 1.906s-1.905 2.955-1.905 5.047a8.8 8.8 0 0 0 .88 3.881c.583 1.214 1.404 2.114 2.452 2.703s2.195.881 3.448.881c1.035 0 1.974-.21 2.814-.638s1.468-.896 1.884-1.412c.3.58.482 1.179.546 1.802h.464l.126-5.263h-.467c-.307 1.867-.931 3.17-1.877 3.907s-2.007 1.107-3.192 1.107c-1.452 0-2.601-.592-3.459-1.778-.855-1.181-1.279-2.876-1.279-5.082 0-2.088.467-3.689 1.398-4.803s2.093-1.666 3.483-1.666c.743 0 1.503.181 2.28.545s1.394.972 1.842 1.836c.455.865.723 1.701.804 2.508m15.621-4.323c0 .322.115.598.348.827s.504.344.827.344a1.14 1.14 0 0 0 .837-.344c.228-.229.345-.505.345-.827a1.14 1.14 0 0 0-.35-.839c-.235-.23-.514-.345-.832-.345-.329 0-.606.12-.834.357s-.341.514-.341.827"/></g></svg>